<svg xmlns="http://www.w3.org/2000/svg" xmlns:xlink="http://www.w3.org/1999/xlink" width="190.108" height="69.357" viewBox="0 0 190.108 69.357">
  <defs>
    <clipPath id="clip-path">
      <path id="Path_1007" data-name="Path 1007" d="M16.8,19.5l48.3,6,.169.9L51.943,59.285,17.194,20.678Z" transform="translate(-16.8 -19.5)" fill="none"/>
    </clipPath>
    <linearGradient id="linear-gradient" x1="-0.187" y1="1.192" x2="-0.175" y2="1.192" gradientUnits="objectBoundingBox">
      <stop offset="0" stop-color="#999fa8"/>
      <stop offset="0.22" stop-color="#999fa8"/>
      <stop offset="0.3" stop-color="#91969f"/>
      <stop offset="0.6" stop-color="#757980"/>
      <stop offset="0.76" stop-color="#6a6e74"/>
      <stop offset="1" stop-color="#6a6e74"/>
    </linearGradient>
    <clipPath id="clip-path-2">
      <path id="Path_1008" data-name="Path 1008" d="M0,21.632V67.59L44.589,77.915l.506-1.178V59.565L44.589,58.5,9.446,19.5Z" transform="translate(0 -19.5)" fill="none"/>
    </clipPath>
    <radialGradient id="radial-gradient" cx="0.343" cy="0.574" r="0.472" gradientTransform="matrix(1.078, 0, 0, -1, -0.013, 1.802)" gradientUnits="objectBoundingBox">
      <stop offset="0" stop-color="#fff"/>
      <stop offset="1" stop-color="#fff"/>
    </radialGradient>
    <clipPath id="clip-path-3">
      <path id="Path_1009" data-name="Path 1009" d="M79.3,63.195V82.61L95.156,65.832V33.062l-2.7-2.862Z" transform="translate(-79.3 -30.2)" fill="none"/>
    </clipPath>
    <linearGradient id="linear-gradient-2" x1="-2.812" y1="1" x2="-2.777" y2="1" gradientUnits="objectBoundingBox">
      <stop offset="0" stop-color="#838589"/>
      <stop offset="1" stop-color="#939598"/>
    </linearGradient>
    <clipPath id="clip-path-4">
      <rect id="Rectangle_221" data-name="Rectangle 221" width="190.108" height="69.329" fill="none"/>
    </clipPath>
  </defs>
  <g id="Artwork_17" data-name="Artwork 17" transform="translate(95.054 34.678)">
    <g id="Group_371" data-name="Group 371" transform="translate(-95.054 -34.678)">
      <g id="Group_367" data-name="Group 367" transform="translate(9.446 10.942)" clip-path="url(#clip-path)">
        <rect id="Rectangle_218" data-name="Rectangle 218" width="48.958" height="55.687" transform="translate(-8.017 38.149) rotate(-78.1)" fill="url(#linear-gradient)"/>
      </g>
      <g id="Group_368" data-name="Group 368" transform="translate(0 10.942)" clip-path="url(#clip-path-2)">
        <rect id="Rectangle_219" data-name="Rectangle 219" width="67.73" height="72.94" transform="matrix(0.876, -0.482, 0.482, 0.876, -24.704, 13.561)" fill="url(#radial-gradient)"/>
      </g>
      <g id="Group_369" data-name="Group 369" transform="translate(44.589 16.946)" clip-path="url(#clip-path-3)">
        <rect id="Rectangle_220" data-name="Rectangle 220" width="15.856" height="52.371" fill="url(#linear-gradient-2)"/>
      </g>
      <path id="Path_1010" data-name="Path 1010" d="M24.5,12.4,55.313,45.06l.506-2.245V6.735L55.313,5.5Z" transform="translate(-10.724 -2.414)" fill="#8ddfff"/>
      <path id="Path_1011" data-name="Path 1011" d="M90.771,17.621,79.3,45.06V5.5Z" transform="translate(-34.711 -2.414)" fill="#318fde"/>
      <g id="Group_370" data-name="Group 370" clip-path="url(#clip-path-4)">
        <text id="XTM" transform="translate(74.446 24.882)" fill="#fff" font-size="30" font-family="NimbusSan-Bol, Nimbus Sans"><tspan x="0" y="0" letter-spacing="0.05em">X</tspan><tspan y="0" letter-spacing="0.02em">T</tspan><tspan y="0">M</tspan></text>
        <text id="DESIGN" transform="translate(74.446 51.536)" fill="#fff" font-size="30" font-family="NimbusSan-Bol, Nimbus Sans"><tspan x="0" y="0" letter-spacing="0.02em">DESIG</tspan><tspan y="0">N</tspan></text>
      </g>
    </g>
  </g>
</svg>
