<?xml version="1.0" encoding="utf-8"?>
<!-- Generator: Adobe Illustrator 25.2.3, SVG Export Plug-In . SVG Version: 6.00 Build 0)  -->
<svg version="1.1" id="Layer_1" xmlns="http://www.w3.org/2000/svg" xmlns:xlink="http://www.w3.org/1999/xlink" x="0px" y="0px"
	 viewBox="0 0 233.7 85.2" style="enable-background:new 0 0 233.7 85.2;" xml:space="preserve">
<style type="text/css">
	.st0{enable-background:new    ;}
	.st1{fill:#555962;}
	.st2{fill:#43484F;}
	.st3{fill:#2E333B;}
	.st4{fill:#92969A;}
	.st5{fill:#8DDFFF;}
	.st6{fill:#318FDE;}
</style>
<g>
	<g id="Group_370">
		<g class="st0">
			<path class="st1" d="M114,30.6h-6.4l-4.9-8.7l-4.8,8.7h-6.4l8.2-13.1L92.1,6h6.1l4.5,7.2l4-7.2h6.5l-7.4,11.5L114,30.6z"/>
		</g>
		<g class="st0">
			<path class="st1" d="M129.1,30.6h-5.5V10.7h-7.5V6h20.4v4.7h-7.5V30.6z"/>
		</g>
		<g class="st0">
			<path class="st1" d="M149.5,30.6l-3.4-13.1c-0.3-1.1-0.5-1.9-0.6-2.4c-0.2-0.8-0.2-0.9-0.4-1.6c0.1,0.9,0.1,1.5,0.1,1.9l0,2.4
				v12.8h-5.1V6h7.8l3.1,12.9c0.5,1.9,0.9,3.9,1.2,5.6c0.1-0.5,0.1-0.7,0.1-0.8l0.4-1.6c0.1-0.4,0.2-1,0.4-1.7
				c0.2-0.8,0.4-1.5,0.4-1.6L156.7,6h7.7v24.6h-5.1V17.7l0-2.4c0-0.5,0-1,0.1-1.9c-0.4,1.5-0.7,2.5-0.8,2.8
				c-0.2,0.7-0.3,1.1-0.4,1.2L155,30.6H149.5z"/>
		</g>
		<g class="st0">
			<path class="st1" d="M94.1,38.7h8.3c5,0,7.6,0.9,9.8,3.4c2,2.2,3,5.3,3,8.8c0,3.6-1.2,7-3.2,9.2c-2.1,2.3-4.9,3.2-9.4,3.2h-8.5
				V38.7z M103.4,58.6c2.5,0,4-0.7,5.1-2.4c0.8-1.4,1.2-3.1,1.2-5.2c0-2.1-0.4-3.7-1.2-5.1c-1-1.7-2.5-2.5-4.7-2.5h-4.1v15.2H103.4z
				"/>
			<path class="st1" d="M138.7,43.5h-12.8v4.8H137v4.4h-11.2v6h13v4.7h-18.6V38.7h18.3V43.5z"/>
			<path class="st1" d="M157.3,46.5V46c0-2.1-1.6-3.2-4.4-3.2c-2.6,0-4.2,1-4.2,2.5c0,1,0.7,1.7,2.2,2.1l5,1.1
				c2.7,0.7,4.2,1.3,5.4,2.4c1.3,1.1,1.9,2.7,1.9,4.7c0,5.1-3.9,8.2-10.3,8.2c-6.6,0-10.5-3.2-10.5-8.7h5.5c0.1,2.8,1.7,4.1,5.1,4.1
				c2.8,0,4.6-1,4.6-2.8c0-1.2-0.9-2.1-2.7-2.5l-4.5-1.1c-2.6-0.6-4.2-1.3-5.3-2.3c-1.3-1-2-2.8-2-4.8c0-4.8,3.7-7.6,9.9-7.6
				c4,0,6.8,1.2,8.4,3.5c0.8,1.2,1.2,2.5,1.4,4.8H157.3z"/>
			<path class="st1" d="M173.4,63.3h-5.5V38.7h5.5V63.3z"/>
			<path class="st1" d="M201,49.7v13.6h-3.3l-0.8-3.1c-1.7,2.7-3.8,3.7-7.4,3.7c-7,0-11.2-4.8-11.2-12.7c0-7.9,4.7-13,11.9-13
				c5.4,0,9.4,3.1,10.6,8l-5.3,0.3c-0.6-2.3-2.5-3.7-5.2-3.7c-4,0-6.5,3-6.5,8c0,5.3,2.4,8.5,6.4,8.5c3.1,0,5.5-2,6-5.1h-6v-4.5H201
				z"/>
		</g>
		<g class="st0">
			<path class="st1" d="M221,63.3l-7-12.6l-2.5-4.8c0.1,1.3,0.1,2.2,0.1,3c0,1.3,0,2.8,0,4.3v10.1h-5.1V38.7h5.8l6.8,12.2
				c1,1.8,1.6,3.1,2.5,5c-0.1-1-0.1-1.7-0.1-2.4l0-1.8V50V38.7h5.1v24.6H221z"/>
		</g>
	</g>
</g>
<g>
	<polygon class="st2" points="11.6,13.4 71,20.8 71.2,21.9 54.8,62.4 12.1,14.9 	"/>
	<polygon class="st3" points="0,16.1 0,72.6 54.8,85.3 55.4,83.8 55.4,62.7 54.8,61.4 11.6,13.4 	"/>
	<polygon class="st4" points="54.8,61.4 54.8,85.3 74.3,64.6 74.3,24.3 71,20.8 	"/>
	<path class="st5" d="M16.9,12.3l37.9,40.1l0.6-2.8V5.3l-0.6-1.5L16.9,12.3z"/>
	<path class="st6" d="M68.9,18.7L54.8,52.4V3.8L68.9,18.7z"/>
</g>
</svg>
